<?xml version="1.0" encoding="utf-8"?>
<!-- Generator: Adobe Illustrator 20.1.0, SVG Export Plug-In . SVG Version: 6.00 Build 0)  -->
<svg version="1.0" id="Layer_1" xmlns="http://www.w3.org/2000/svg" xmlns:xlink="http://www.w3.org/1999/xlink" x="0px" y="0px"
	 width="127px" height="66px" viewBox="0 0 127 66" enable-background="new 0 0 127 66" xml:space="preserve">
<g id="XMLID_1318_">
	<path id="XMLID_1331_" fill="#65666A" d="M16.8,44.9c0-0.8-0.6-1.3-1.5-1.3c-0.7,0-1.3,0.2-1.8,0.6v-1c0.4-0.3,1.2-0.5,2-0.5
		c1.5,0,2.4,0.9,2.4,2.2v4.4h-1.1v-0.5c-0.2,0.3-0.9,0.6-1.7,0.6c-1.3,0-2.4-0.8-2.4-2.1c0-1.2,1.1-2,2.5-2c0.7,0,1.3,0.3,1.6,0.5
		L16.8,44.9L16.8,44.9L16.8,44.9z M16.8,47c-0.2-0.5-0.8-0.8-1.5-0.8c-0.8,0-1.5,0.4-1.5,1.1c0,0.8,0.8,1.2,1.5,1.2
		c0.7,0,1.3-0.3,1.5-0.8V47z M30.6,40.3v9h-1.2v-4.1h-5.1v4.1h-1.2v-9h1.2v3.8h5.1v-3.8C29.4,40.3,30.6,40.3,30.6,40.3z M33.3,46.2
		c0,1.5,1,2.2,2.2,2.2c0.7,0,1.3-0.2,1.8-0.6v1c-0.5,0.4-1.2,0.6-2,0.6c-1.9,0-3.1-1.3-3.1-3.3c0-2,1.2-3.4,2.9-3.4
		c1.8,0,2.7,1.3,2.7,3.2v0.4L33.3,46.2L33.3,46.2z M33.3,45.3h3.3c0-1-0.5-1.8-1.6-1.8C34.2,43.6,33.5,44.1,33.3,45.3z M44.5,47.7
		l1.4-5H47l-1.9,6.5h-1.1l-1.3-4.9l-1.4,4.9h-1.1l-1.9-6.5h1.1l1.4,5l1.3-5h1L44.5,47.7z M49.3,49.3h-1.1v-9.5h1.1V49.3z M51.9,46.2
		c0,1.5,1,2.2,2.2,2.2c0.7,0,1.3-0.2,1.8-0.6v1c-0.5,0.4-1.2,0.6-2,0.6c-1.9,0-3.1-1.3-3.1-3.3c0-2,1.2-3.4,2.9-3.4
		c1.8,0,2.7,1.3,2.7,3.2v0.4L51.9,46.2L51.9,46.2z M51.9,45.3h3.3c0-1-0.5-1.8-1.6-1.8C52.8,43.6,52.1,44.1,51.9,45.3z M59.6,49.3
		h-1.1v-5.5h-1.4v-0.9h1.4v-1.7h1.1v1.7h1.5v0.9h-1.5C59.6,43.7,59.6,49.3,59.6,49.3z M64.4,49.3h-1.1v-5.5H62v-0.9h1.4v-1.7h1.1
		v1.7h1.5v0.9h-1.5V49.3z M71.9,45.7v3.6h-1.2v-9H74c1.8,0,3,0.9,3,2.7c0,1.8-1.2,2.7-3,2.7C74,45.7,71.9,45.7,71.9,45.7z M74,41.3
		h-2.1v3.3H74c1.2,0,1.9-0.7,1.9-1.7C75.9,41.9,75.2,41.3,74,41.3z M81.8,44.9c0-0.8-0.6-1.3-1.5-1.3c-0.7,0-1.3,0.2-1.8,0.6v-1
		c0.4-0.3,1.2-0.5,2-0.5c1.5,0,2.4,0.9,2.4,2.2v4.4h-1.1v-0.5c-0.2,0.3-0.9,0.6-1.7,0.6c-1.3,0-2.4-0.8-2.4-2.1c0-1.2,1.1-2,2.5-2
		c0.7,0,1.3,0.3,1.6,0.5V44.9z M81.8,47c-0.2-0.5-0.8-0.8-1.5-0.8c-0.8,0-1.5,0.4-1.5,1.1c0,0.8,0.8,1.2,1.5,1.2
		c0.7,0,1.3-0.3,1.5-0.8V47z M87.4,42.6c0.6,0,1.3,0.1,1.7,0.5v1.1c-0.5-0.5-1-0.7-1.7-0.7c-1.2,0-2.1,0.9-2.1,2.4s0.9,2.4,2.1,2.4
		c0.6,0,1.2-0.2,1.7-0.7v1.1c-0.5,0.4-1.1,0.5-1.7,0.5c-1.8,0-3.1-1.3-3.1-3.4C84.3,43.9,85.7,42.6,87.4,42.6z M96.1,49.3h-1.4
		l-3-3.2v3.2h-1.1v-9.5h1.1v5.7l2.9-2.7H96l-3.2,3L96.1,49.3z M100.6,44.9c0-0.8-0.6-1.3-1.5-1.3c-0.7,0-1.3,0.2-1.8,0.6v-1
		c0.4-0.3,1.2-0.5,2-0.5c1.5,0,2.4,0.9,2.4,2.2v4.4h-1.1v-0.5c-0.2,0.3-0.9,0.6-1.7,0.6c-1.3,0-2.4-0.8-2.4-2.1c0-1.2,1.1-2,2.5-2
		c0.7,0,1.3,0.3,1.6,0.5L100.6,44.9L100.6,44.9z M100.6,47c-0.2-0.5-0.8-0.8-1.5-0.8c-0.8,0-1.5,0.4-1.5,1.1c0,0.8,0.8,1.2,1.5,1.2
		c0.7,0,1.3-0.3,1.5-0.8V47z M106.8,43.9c-0.2-0.1-0.4-0.2-0.7-0.2c-0.7,0-1.3,0.5-1.5,1.2v4.3h-1.1v-6.5h1.1v0.8
		c0.3-0.6,0.9-1,1.6-1c0.3,0,0.5,0,0.6,0.1L106.8,43.9L106.8,43.9z M112.4,48.5c-0.3,0.5-1,0.9-1.8,0.9c-1.9,0-2.9-1.5-2.9-3.4
		c0-1.8,1-3.4,2.9-3.4c0.8,0,1.5,0.4,1.8,0.9v-3.8h1.1v9.5h-1.1V48.5z M112.4,44.7c-0.3-0.7-1-1.1-1.7-1.1c-1.2,0-2,1-2,2.4
		c0,1.4,0.7,2.4,2,2.4c0.7,0,1.3-0.4,1.7-1.1V44.7z M14.6,54.9v1H10v2.8h4.1v1H10v3.1h4.6v1H8.9v-9L14.6,54.9L14.6,54.9z M16.1,57.4
		h1.1v0.8c0.4-0.5,1.1-1,1.9-1c1.5,0,2.3,1,2.3,2.4v4.2h-1.1v-4.1c0-0.9-0.5-1.5-1.4-1.5c-0.8,0-1.4,0.5-1.6,1.2v4.4h-1.1V57.4z
		 M24.9,63.9h-1.1v-5.6h-1.4v-0.9h1.4v-1.7h1.1v1.7h1.5v0.9h-1.5L24.9,63.9L24.9,63.9z M28.2,60.8c0,1.5,1,2.2,2.2,2.2
		c0.7,0,1.3-0.2,1.8-0.6v1c-0.5,0.4-1.2,0.6-2,0.6c-1.9,0-3.1-1.3-3.1-3.3c0-2,1.2-3.4,2.9-3.4c1.8,0,2.7,1.3,2.7,3.2v0.4L28.2,60.8
		L28.2,60.8z M28.2,59.9h3.3c0-0.9-0.5-1.8-1.6-1.8C29.1,58.2,28.4,58.7,28.2,59.9z M37.4,58.5c-0.2-0.1-0.5-0.2-0.7-0.2
		c-0.7,0-1.3,0.5-1.5,1.2v4.4h-1.1v-6.5h1.1v0.8c0.3-0.6,0.9-1,1.6-1c0.3,0,0.5,0,0.6,0.1L37.4,58.5L37.4,58.5z M39.8,66.3h-1.1v-9
		h1.1v0.8c0.3-0.5,1-0.9,1.8-0.9c1.9,0,2.9,1.6,2.9,3.4c0,1.8-1,3.4-2.9,3.4c-0.8,0-1.5-0.4-1.8-0.9L39.8,66.3L39.8,66.3z
		 M39.8,61.9c0.3,0.7,1,1.1,1.7,1.1c1.2,0,2-1,2-2.4c0-1.4-0.7-2.4-2-2.4c-0.7,0-1.3,0.4-1.7,1.1V61.9z M49.3,58.5
		c-0.2-0.1-0.5-0.2-0.7-0.2c-0.7,0-1.3,0.5-1.5,1.2v4.4H46v-6.5h1.1v0.8c0.3-0.6,0.9-1,1.6-1c0.3,0,0.5,0,0.6,0.1V58.5z M51.1,56.1
		c-0.4,0-0.7-0.3-0.7-0.7c0-0.4,0.3-0.7,0.7-0.7c0.4,0,0.7,0.3,0.7,0.7C51.8,55.8,51.5,56.1,51.1,56.1z M51.6,63.9h-1.1v-6.5h1.1
		V63.9z M53.2,62.2c0.6,0.6,1.3,0.9,2.1,0.9c0.7,0,1.3-0.3,1.3-0.9c0-0.5-0.4-0.7-0.9-0.9l-0.9-0.3c-1-0.3-1.6-0.8-1.6-1.8
		c0-1.1,1-1.8,2.3-1.8c0.7,0,1.4,0.2,1.9,0.6v1.1c-0.5-0.5-1.1-0.8-1.9-0.8c-0.7,0-1.2,0.3-1.2,0.8c0,0.5,0.4,0.7,1,0.9l1,0.3
		c1,0.3,1.5,0.9,1.5,1.8c0,1.2-1.1,1.9-2.4,1.9c-0.8,0-1.7-0.3-2.1-0.6L53.2,62.2L53.2,62.2z M59.9,60.8c0,1.5,1,2.2,2.2,2.2
		c0.7,0,1.3-0.2,1.8-0.6v1c-0.5,0.4-1.2,0.6-2,0.6c-1.9,0-3.1-1.3-3.1-3.3c0-2,1.2-3.4,2.9-3.4c1.8,0,2.7,1.3,2.7,3.2v0.4L59.9,60.8
		L59.9,60.8z M60,59.9h3.3c0-0.9-0.5-1.8-1.6-1.8C60.9,58.2,60.2,58.7,60,59.9z M71.9,57.2c0.6,0,1.3,0.1,1.7,0.5v1.1
		c-0.5-0.5-1-0.7-1.7-0.7c-1.2,0-2.1,0.9-2.1,2.4c0,1.5,0.9,2.4,2.1,2.4c0.6,0,1.2-0.2,1.7-0.7v1.1c-0.5,0.4-1.1,0.5-1.7,0.5
		c-1.8,0-3.1-1.3-3.1-3.4C68.8,58.5,70.1,57.2,71.9,57.2z M77.6,64c-1.8,0-3-1.4-3-3.4c0-2,1.2-3.4,3-3.4c1.8,0,3,1.4,3,3.4
		C80.5,62.6,79.3,64,77.6,64z M77.6,58.2c-1.2,0-1.9,1-1.9,2.4c0,1.4,0.7,2.4,1.9,2.4c1.2,0,1.9-1,1.9-2.4
		C79.4,59.2,78.7,58.2,77.6,58.2z M88.6,57.2c1.3,0,2,0.9,2,2.3v4.3h-1.1v-4.1c0-0.9-0.4-1.5-1.2-1.5c-0.7,0-1.2,0.5-1.4,1.2v4.5
		h-1.1v-4.1c0-0.9-0.4-1.5-1.2-1.5c-0.7,0-1.2,0.5-1.4,1.2v4.5H82v-6.5h1.1v0.8c0.3-0.5,1-0.9,1.8-0.9c0.8,0,1.4,0.4,1.8,1
		C87,57.7,87.7,57.2,88.6,57.2z M93.5,66.3h-1.1v-9h1.1v0.8c0.3-0.5,1-0.9,1.8-0.9c1.9,0,2.9,1.6,2.9,3.4c0,1.8-1,3.4-2.9,3.4
		c-0.8,0-1.5-0.4-1.8-0.9V66.3z M93.5,61.9c0.3,0.7,1,1.1,1.7,1.1c1.2,0,2-1,2-2.4c0-1.4-0.7-2.4-2-2.4c-0.7,0-1.3,0.4-1.7,1.1V61.9
		z M103.4,59.5c0-0.8-0.6-1.3-1.5-1.3c-0.7,0-1.3,0.2-1.8,0.6v-1c0.4-0.3,1.2-0.5,2-0.5c1.5,0,2.4,0.8,2.4,2.2v4.4h-1.1v-0.5
		c-0.2,0.3-0.9,0.6-1.7,0.6c-1.3,0-2.4-0.8-2.4-2.1c0-1.2,1.1-2,2.5-2c0.7,0,1.3,0.3,1.6,0.5V59.5z M103.4,61.6
		c-0.2-0.5-0.8-0.8-1.5-0.8c-0.8,0-1.5,0.3-1.5,1.1c0,0.8,0.8,1.2,1.5,1.2c0.7,0,1.3-0.3,1.5-0.8V61.6z M106.3,57.4h1.1v0.8
		c0.4-0.5,1.1-1,1.9-1c1.5,0,2.3,1,2.3,2.4v4.2h-1.1v-4.1c0-0.9-0.5-1.5-1.4-1.5c-0.8,0-1.4,0.5-1.6,1.2v4.4h-1.1V57.4z M114,66.3
		l1-2.4l-2.5-6.5h1.2l1.9,5.1l1.9-5.1h1.1l-3.5,9C115.1,66.3,114,66.3,114,66.3z"/>
	<path id="XMLID_1319_" fill="#F48220" d="M71.8,19.5L71.8,19.5c0,6.8-5.5,12.4-12.2,12.4s-12.1-5.5-12.1-12.4l0,0V9
		c0,0,5.8,1.4,5.8,7.6v2.9c0,3.7,2.8,6.8,6.3,6.8c3.5,0,6.3-3,6.3-6.8v-6.1v0v0.1c0.2-5.1,4.6-6.8,5.7-7.3h0.1v7.2L71.8,19.5
		L71.8,19.5z M40.5,7.2c1.6,0,3.1,0.3,4.5,0.8v6.5c-1.2-1-2.8-1.7-4.5-1.7c-3.8,0-6.9,3-6.9,6.7v12.3h-5.8v-12v-0.2V9.5
		c0,0,2.4,0.1,3.9,1.2C34,8.5,37.1,7.2,40.5,7.2 M12.7,26.4c-3.9,0-7-3.1-7-6.8c0-3.8,3.2-6.8,7-6.8c3.9,0,7,3.1,7,6.8
		C19.7,23.3,16.6,26.4,12.7,26.4 M12.7,7.2C5.7,7.2,0,12.7,0,19.5c0,6.8,5.7,12.3,12.7,12.3c2.9,0,5.6-1,7.7-2.5
		c1.3,2.1,5,2.5,5,2.5v-2v-9.8v-0.5C25.4,12.7,19.7,7.2,12.7,7.2 M113.9,26.4c-3.9,0-7-3.1-7-6.8c0-3.8,3.1-6.8,7-6.8
		c3.9,0,7,3.1,7,6.8C120.9,23.3,117.7,26.4,113.9,26.4 M113.9,7.2c-7,0-12.7,5.5-12.7,12.3c0,6.8,5.7,12.3,12.7,12.3
		c2.9,0,5.6-1,7.7-2.5c1.3,2.1,5,2.5,5,2.5v-2v-9.8v-0.5C126.5,12.7,120.9,7.2,113.9,7.2 M87,26.4c-3.9,0-7-3.1-7-6.8
		c0-3.8,3.1-6.8,7-6.8c3.9,0,7,3.1,7,6.8C94.1,23.3,90.9,26.4,87,26.4 M87,7.2c-2.6,0-5,0.8-7,2V7.3c-0.2-5.1-4.5-6.8-5.6-7.3h-0.1
		v19.5v0.8v9.6V32c0,0,3.8-0.4,5.2-2.5c2.1,1.5,4.7,2.4,7.5,2.4c7,0,12.7-5.5,12.7-12.3C99.7,12.7,94,7.2,87,7.2"/>
</g>
</svg>
